# xmcd
#
# Track frame offsets:
#	150
#	16931
#	36616
#	50351
#	67399
#	85642
#	102433
#	117039
#	134635
#	151714
#	169494
#
# Disc length: 2506 seconds
#
# Revision: 0
# Processed by: cddbd v1.5.2PL0 Copyright (c) Steve Scherf et al.
# Submitted via: EasyCDDAExtractor 4.6.9.1
#
DISCID=9609c80b
DTITLE=Martina McBride - Shine
DYEAR=2009
DGENRE=Country
TTITLE0=Wrong Baby Wrong Baby Wrong
TTITLE1=I Just Call You Mine
TTITLE2=Sunny Side Up
TTITLE3=Walk Away
TTITLE4=I'm Trying
TTITLE5=What Do I Have To Do
TTITLE6=Don't Cost A Dime
TTITLE7=Ride
TTITLE8=You're Not Leaving Me
TTITLE9=Wild Rebel Rose
TTITLE10=Lies
EXTD=
EXTT0=
EXTT1=
EXTT2=
EXTT3=
EXTT4=
EXTT5=
EXTT6=
EXTT7=
EXTT8=
EXTT9=
EXTT10=
PLAYORDER=
